# Blender v2.82 (sub 7) OBJ File: 'soilTilled.blend'
# www.blender.org
mtllib plantLeaf.mtl
o Plane.002
v -0.438396 0.785174 0.529618
v -0.225126 -0.056748 0.516596
v -0.367869 0.521088 -0.098390
v -0.194314 -0.033201 -0.109190
v -0.468963 0.879560 0.851878
v -0.257897 0.305223 0.836257
v -0.478418 0.941323 1.049497
v -0.304729 0.581920 1.036538
v -0.490990 0.991081 1.189098
v -0.434373 0.896810 1.185347
v -0.464693 1.027898 1.231647
v -0.455586 0.999671 1.230990
v -0.428507 1.174505 1.349658
v -0.424233 1.133776 1.349464
v -0.309548 0.226590 -0.485812
v -0.263962 -0.033746 -0.490477
v -0.300028 0.055257 -0.643451
v -0.273482 -0.072044 -0.641580
v -0.289675 0.006254 -0.676128
v -0.293500 -0.085201 -0.703869
v -0.446823 0.782185 0.532833
v -0.250021 -0.057123 0.519521
v -0.376296 0.518099 -0.095176
v -0.218206 -0.037318 -0.105927
v -0.477390 0.876572 0.855093
v -0.282414 0.302400 0.839419
v -0.486845 0.938334 1.052712
v -0.329419 0.576342 1.039999
v -0.499416 0.988092 1.192312
v -0.458829 0.888558 1.189077
v -0.489476 1.019286 1.235433
v -0.480340 0.991048 1.234776
v -0.454811 1.166802 1.353433
v -0.450351 1.125843 1.353254
v -0.317974 0.223601 -0.482597
v -0.288174 -0.040610 -0.486907
v -0.324284 0.048078 -0.639845
v -0.297668 -0.078103 -0.638096
v -0.313816 -0.000301 -0.672595
v -0.317682 -0.090767 -0.700437
v -0.260485 0.387492 0.517278
v -0.225181 0.155550 -0.107554
v -0.340264 0.602090 0.841938
v -0.383193 0.765054 1.042636
v -0.456323 0.945987 1.187100
v -0.460283 1.013723 1.231333
v -0.426696 1.154058 1.349588
v -0.269123 -0.010703 -0.490108
v -0.269631 -0.013054 -0.522231
v -0.298532 -0.073024 -0.707535
v -0.285028 0.382640 0.520655
v -0.249328 0.150279 -0.104155
v -0.364872 0.595536 0.845498
v -0.407778 0.757407 1.046309
v -0.480719 0.937534 1.190848
v -0.485050 1.005100 1.235119
v -0.452904 1.146232 1.353371
v -0.293340 -0.017796 -0.486513
v -0.293900 -0.020122 -0.518636
v -0.322746 -0.078692 -0.704091
vt 1.000000 0.000000
vt 1.000000 1.000000
vt 0.673913 1.000000
vt 0.500000 0.000000
vt 0.000000 0.000000
vt 0.000000 0.000000
vt 0.500000 0.000000
vt 0.500000 0.000000
vt 0.000000 0.000000
vt 0.500000 0.000000
vt 0.000000 0.000000
vt 0.500000 0.000000
vt 0.000000 0.000000
vt 0.500000 0.000000
vt 0.000000 0.000000
vt 0.500000 0.000000
vt 1.000000 1.000000
vt 0.909633 1.000000
vt 1.000000 1.000000
vt 0.919587 1.000000
vt 1.000000 1.000000
vt 0.500000 1.000000
vt 0.673913 1.000000
vt 1.000000 1.000000
vt 1.000000 0.000000
vt 0.500000 0.000000
vt 0.500000 0.000000
vt 0.000000 0.000000
vt 0.000000 0.000000
vt 0.500000 0.000000
vt 0.000000 0.000000
vt 0.500000 0.000000
vt 0.000000 0.000000
vt 0.500000 0.000000
vt 0.000000 0.000000
vt 0.500000 0.000000
vt 0.000000 0.000000
vt 0.500000 0.000000
vt 0.909633 1.000000
vt 1.000000 1.000000
vt 1.000000 1.000000
vt 0.673913 1.000000
vt 0.919587 1.000000
vt 1.000000 1.000000
vt 0.909633 1.000000
vt 0.500000 1.000000
vt 1.000000 1.000000
vt 0.919587 1.000000
vt 0.500000 0.000000
vt 1.000000 0.000000
vt 1.000000 0.000000
vt 0.000000 0.000000
vt 0.000000 0.000000
vt 1.000000 1.000000
vt 1.000000 1.000000
vt 1.000000 0.000000
vt 1.000000 1.000000
vt 1.000000 0.000000
vt 1.000000 0.000000
vt 1.000000 0.000000
vt 0.500000 1.000000
vt 0.000000 1.000000
vt 0.000000 1.000000
vt 0.500000 1.000000
vt 0.000000 0.000000
vt 0.000000 0.000000
vt 1.000000 0.000000
vt 1.000000 0.000000
vt 1.000000 0.000000
vt 1.000000 0.000000
vt 0.000000 1.000000
vt 0.000000 1.000000
vt 0.000000 0.000000
vt 1.000000 1.000000
vt 1.000000 0.000000
vt 1.000000 0.000000
vt 0.000000 1.000000
vt 0.000000 1.000000
vt 0.000000 1.000000
vt 0.000000 1.000000
vt 0.000000 0.000000
vt 0.000000 1.000000
vt 0.000000 0.000000
vt 0.919587 1.000000
vt 0.500000 1.000000
vt 0.000000 1.000000
vt 0.000000 1.000000
vt 0.909633 1.000000
vt 0.000000 1.000000
vt 0.673913 1.000000
vt 0.000000 1.000000
vt 0.500000 0.000000
vt 0.500000 0.000000
vt 1.000000 0.000000
vt 1.000000 0.000000
vt 0.500000 0.000000
vt 1.000000 0.000000
vt 0.500000 0.000000
vt 1.000000 0.000000
vt 0.500000 0.000000
vt 1.000000 0.000000
vn -0.9940 -0.1039 -0.0352
vn -0.9091 -0.4143 0.0428
vn -0.8868 -0.4426 0.1331
vn -0.8496 -0.5047 0.1535
vn -0.6073 -0.4266 0.6702
vn -0.8752 -0.1623 0.4556
vn -0.9694 -0.1666 0.1805
vn -0.9865 -0.1398 0.0850
vn -0.7971 -0.5179 0.3105
vn 0.9939 0.1046 0.0359
vn 0.9271 0.3743 -0.0196
vn 0.9184 0.3842 -0.0949
vn 0.9201 0.3899 -0.0385
vn 0.8543 0.3164 -0.4124
vn 0.8779 0.1648 -0.4496
vn 0.9686 0.1689 -0.1825
vn 0.9860 0.1435 -0.0852
vn 0.7956 0.5222 -0.3070
vn -0.1399 -0.0114 -0.9901
vn 0.4161 -0.8620 0.2893
vn -0.2812 0.9349 -0.2167
vn -0.0878 0.9957 0.0301
vn -0.3174 0.6667 -0.6744
vn 0.2260 -0.3829 0.8957
vn 0.3085 -0.6394 0.7043
vn -0.2289 0.3389 -0.9125
vn 0.2633 -0.4986 0.8259
vn 0.4264 -0.8392 0.3375
vn -0.2481 0.9613 -0.1195
vn -0.1342 0.6505 -0.7475
vn 0.4598 -0.6723 0.5802
vn 0.4167 -0.8610 0.2917
vn -0.2177 0.9754 0.0350
vn -0.2569 0.3476 -0.9017
vn 0.4364 -0.8109 0.3900
vn 0.3778 -0.7963 0.4724
vn -0.2032 0.5534 -0.8077
vn 0.3415 -0.6300 0.6975
vn 0.0623 0.3121 0.9480
vn -0.1397 -0.0095 -0.9901
vn 0.9903 0.0722 -0.1188
vn 0.9820 0.1188 -0.1472
vn 0.9618 0.2421 -0.1276
vn 0.8724 0.1900 -0.4504
vn 0.8190 0.3606 -0.4464
vn 0.9155 0.4004 -0.0404
vn 0.9367 0.3213 -0.1390
vn 0.9870 0.1579 0.0316
vn 0.9336 0.3530 -0.0607
vn -0.9902 -0.0715 0.1200
vn -0.9763 -0.1807 0.1190
vn -0.9441 -0.2903 0.1561
vn -0.8699 -0.1876 0.4561
vn -0.8162 -0.3590 0.4528
vn -0.9168 -0.3976 0.0383
vn -0.9380 -0.3177 0.1384
vn -0.9871 -0.1565 -0.0324
vn -0.9185 -0.3880 0.0760
g Plane.002_Plane.002_leaf
usemtl leaf
s off
f 41/1/1 42/2/1 4/3/1 2/4/1
f 41/5/2 43/6/2 5/7/2 1/8/2
f 43/6/3 44/9/3 7/10/3 5/7/3
f 44/9/4 45/11/4 9/12/4 7/10/4
f 45/11/5 46/13/5 11/14/5 9/12/5
f 46/13/6 47/15/6 13/16/6 11/14/6
f 42/2/7 48/17/7 16/18/7 4/3/7
f 48/17/8 49/19/8 18/20/8 16/18/8
f 49/19/9 50/21/9 20/22/9 18/20/9
f 51/23/10 22/24/10 24/25/10 52/26/10
f 51/27/11 21/28/11 25/29/11 53/30/11
f 53/30/12 25/29/12 27/31/12 54/32/12
f 54/32/13 27/31/13 29/33/13 55/34/13
f 55/34/14 29/33/14 31/35/14 56/36/14
f 56/36/15 31/35/15 33/37/15 57/38/15
f 52/39/16 24/40/16 36/41/16 58/42/16
f 58/43/17 36/41/17 38/44/17 59/45/17
f 59/46/18 38/44/18 40/47/18 60/48/18
f 47/49/19 14/50/19 34/51/19 57/38/19
f 5/52/20 7/53/20 27/31/20 25/29/20
f 16/54/21 18/55/21 38/44/21 36/41/21
f 2/56/22 4/57/22 24/40/22 22/58/22
f 14/50/23 12/59/23 32/60/23 34/51/23
f 50/61/24 19/62/24 39/63/24 60/64/24
f 11/65/25 13/66/25 33/37/25 31/35/25
f 10/67/26 8/68/26 28/69/26 30/70/26
f 19/62/27 17/71/27 37/72/27 39/63/27
f 7/53/28 9/73/28 29/33/28 27/31/28
f 18/55/29 20/74/29 40/47/29 38/44/29
f 6/75/30 2/56/30 22/58/30 26/76/30
f 15/77/31 3/78/31 23/79/31 35/80/31
f 1/81/32 5/52/32 25/29/32 21/28/32
f 4/57/33 16/54/33 36/41/33 24/40/33
f 12/59/34 10/67/34 30/70/34 32/60/34
f 3/78/35 1/81/35 21/28/35 23/79/35
f 9/73/36 11/65/36 31/35/36 29/33/36
f 8/68/37 6/75/37 26/76/37 28/69/37
f 17/71/38 15/77/38 35/80/38 37/72/38
f 20/74/39 50/61/39 60/64/39 40/47/39
f 13/66/40 47/49/40 57/38/40 33/37/40
f 37/72/41 59/46/41 60/48/41 39/63/41
f 35/80/42 58/43/42 59/45/42 37/72/42
f 23/79/43 52/39/43 58/42/43 35/80/43
f 32/60/44 56/36/44 57/38/44 34/51/44
f 30/70/45 55/34/45 56/36/45 32/60/45
f 28/69/46 54/32/46 55/34/46 30/70/46
f 26/76/47 53/30/47 54/32/47 28/69/47
f 22/58/48 51/27/48 53/30/48 26/76/48
f 21/82/49 51/23/49 52/26/49 23/83/49
f 17/84/50 19/85/50 50/86/50 49/87/50
f 15/88/51 17/84/51 49/87/51 48/89/51
f 3/90/52 15/88/52 48/89/52 42/91/52
f 12/92/53 14/93/53 47/94/53 46/95/53
f 10/96/54 12/92/54 46/95/54 45/97/54
f 8/98/55 10/96/55 45/97/55 44/99/55
f 6/100/56 8/98/56 44/99/56 43/101/56
f 2/4/57 6/100/57 43/101/57 41/1/57
f 1/8/58 3/90/58 42/91/58 41/5/58
o Sphere
v -0.728573 1.446440 0.982848
v -0.614518 1.346704 0.997646
v -0.535977 1.293869 1.061510
v -0.472366 1.253403 1.170119
v -0.432120 1.206631 1.285144
v -0.926708 1.591637 1.007756
v -0.094082 1.488940 1.566157
v -0.092756 1.430438 1.467660
v -0.154041 1.361988 1.382067
v -0.246702 1.227734 1.327425
v -0.350570 1.181809 1.315733
v -0.466352 1.205699 1.819401
v -0.409974 1.211328 1.774088
v -0.371010 1.230706 1.657142
v -0.390246 1.224182 1.493185
v -0.440865 1.172457 1.403434
v -0.446175 1.173044 1.352525
v -1.018288 1.354770 1.522583
v -0.949824 1.316988 1.538868
v -0.785625 1.273422 1.548674
v -0.609797 1.207320 1.491863
v -0.531415 1.169521 1.409025
v -0.796089 1.442732 1.014935
v -0.742944 1.294795 1.077073
v -0.690102 1.227235 1.153928
v -0.604749 1.206589 1.246485
v -0.557500 1.181391 1.346601
v -0.171149 1.534701 1.626469
v -1.009402 1.383183 1.479947
v -0.522262 1.202692 1.814828
v -0.563170 1.207755 1.765711
v -0.573680 1.223357 1.682198
v -0.565810 1.207554 1.534801
v -0.486697 1.210417 1.771991
v -0.155910 1.455457 1.723656
v -0.178933 1.382678 1.702633
v -0.232059 1.338223 1.622838
v -0.286597 1.248129 1.526711
v -0.390677 1.171636 1.391158
v -0.968142 1.390000 1.360645
v -0.854980 1.380690 1.319559
v -0.719121 1.329271 1.306830
v -0.631237 1.224250 1.315158
v -0.154084 1.377528 1.026191
v -0.284708 1.355181 1.043913
v -0.407741 1.318787 1.115700
v -0.445003 1.243461 1.201505
v -0.086617 1.378988 1.130482
v -0.167496 1.344213 1.230585
v -0.244535 1.281976 1.287300
v -0.307123 1.215577 1.291801
v -0.073939 1.477737 1.053166
v -0.172823 1.389696 1.049585
v -0.296569 1.368525 1.066373
v -0.413123 1.334048 1.134380
v -0.448422 1.262689 1.215667
v -0.436217 1.227799 1.294900
v -0.096899 1.484628 1.075139
v -0.108910 1.391079 1.148383
v -0.185530 1.358135 1.243215
v -0.258511 1.299176 1.296943
v -0.317803 1.236273 1.301207
v -0.358962 1.204284 1.323879
v -0.174554 1.463521 1.710319
v -0.196364 1.394575 1.690404
v -0.246692 1.352460 1.614810
v -0.298358 1.267112 1.523746
v -0.396957 1.194646 1.395332
v -0.449533 1.195980 1.358733
v -0.114726 1.439819 1.467805
v -0.115982 1.495240 1.561115
v -0.260564 1.247790 1.334955
v -0.172783 1.374974 1.386719
v -0.521612 1.224067 1.796690
v -0.560365 1.228863 1.750160
v -0.570322 1.243644 1.671045
v -0.562866 1.228673 1.531410
v -0.530283 1.192643 1.412258
v -0.444502 1.195425 1.406961
v -0.396548 1.244426 1.491985
v -0.378326 1.250605 1.647308
v -0.415238 1.232249 1.758095
v -0.468646 1.226916 1.801021
v -0.944010 1.401511 1.366425
v -0.836808 1.392692 1.327503
v -0.708104 1.343980 1.315445
v -0.624848 1.244490 1.323334
v -0.554995 1.203888 1.353121
v -0.604537 1.228452 1.490734
v -0.771105 1.291072 1.544552
v -0.926657 1.332344 1.535263
v -0.991516 1.368137 1.519835
v -0.904758 1.592529 1.032121
v -0.717058 1.454979 1.008525
v -0.487921 1.231385 1.756108
v -0.781018 1.451466 1.038921
v -0.599756 1.227759 1.258278
v -0.474344 1.272108 1.185933
v -0.534605 1.310443 1.083044
v -0.680614 1.247318 1.170595
v -0.730673 1.311320 1.097787
v -0.609010 1.360495 1.022544
v -0.188990 1.538591 1.618250
v -0.983098 1.395052 1.479445
vt 0.500000 0.000000
vt 0.400000 0.166667
vt 0.600000 0.166667
vt 0.600000 0.333333
vt 0.400000 0.333333
vt 0.400000 0.500000
vt 0.600000 0.500000
vt 0.600000 0.666667
vt 0.400000 0.666667
vt 0.400000 0.833333
vt 0.600000 0.833333
vt 0.500000 1.000000
vt 0.400000 0.666667
vt 0.200000 0.666667
vt 0.200000 0.833333
vt 0.400000 0.833333
vt 0.200000 0.166667
vt 0.200000 0.333333
vt 0.400000 0.333333
vt 0.400000 0.500000
vt 0.200000 0.500000
vt 0.300000 1.000000
vt 0.300000 0.000000
vt 0.200000 0.166667
vt 0.000000 0.166667
vt 0.000000 0.333333
vt 0.200000 0.333333
vt 0.200000 0.500000
vt 0.000000 0.500000
vt 0.000000 0.666667
vt 0.200000 0.666667
vt 0.200000 0.833333
vt 0.000000 0.833333
vt 0.100000 1.000000
vt 0.100000 0.000000
vt 1.000000 0.166667
vt 0.800000 0.166667
vt 0.800000 0.333333
vt 1.000000 0.333333
vt 1.000000 0.500000
vt 0.800000 0.500000
vt 0.800000 0.666667
vt 1.000000 0.666667
vt 1.000000 0.833333
vt 0.800000 0.833333
vt 0.900000 1.000000
vt 0.900000 0.000000
vt 0.600000 0.333333
vt 0.800000 0.333333
vt 0.800000 0.500000
vt 0.600000 0.500000
vt 0.600000 0.666667
vt 0.800000 0.666667
vt 0.800000 0.833333
vt 0.600000 0.833333
vt 0.700000 1.000000
vt 0.700000 0.000000
vt 0.500000 0.000000
vt 0.600000 0.166667
vt 0.400000 0.166667
vt 0.600000 0.333333
vt 0.600000 0.500000
vt 0.400000 0.500000
vt 0.400000 0.333333
vt 0.600000 0.666667
vt 0.600000 0.833333
vt 0.400000 0.833333
vt 0.400000 0.666667
vt 0.500000 1.000000
vt 0.400000 0.666667
vt 0.400000 0.833333
vt 0.200000 0.833333
vt 0.200000 0.666667
vt 0.400000 0.333333
vt 0.200000 0.333333
vt 0.200000 0.166667
vt 0.400000 0.500000
vt 0.200000 0.500000
vt 0.300000 1.000000
vt 0.300000 0.000000
vt 0.200000 0.166667
vt 0.200000 0.333333
vt 0.000000 0.333333
vt 0.000000 0.166667
vt 0.200000 0.500000
vt 0.200000 0.666667
vt 0.000000 0.666667
vt 0.000000 0.500000
vt 0.200000 0.833333
vt 0.100000 1.000000
vt 0.000000 0.833333
vt 0.100000 0.000000
vt 1.000000 0.166667
vt 1.000000 0.333333
vt 0.800000 0.333333
vt 0.800000 0.166667
vt 1.000000 0.500000
vt 1.000000 0.666667
vt 0.800000 0.666667
vt 0.800000 0.500000
vt 1.000000 0.833333
vt 0.900000 1.000000
vt 0.800000 0.833333
vt 0.900000 0.000000
vt 0.800000 0.333333
vt 0.600000 0.333333
vt 0.800000 0.500000
vt 0.800000 0.666667
vt 0.600000 0.666667
vt 0.600000 0.500000
vt 0.800000 0.833333
vt 0.700000 1.000000
vt 0.600000 0.833333
vt 0.700000 0.000000
vn -0.0604 0.9958 0.0692
vn -0.3359 0.9008 0.2750
vn -0.0157 0.8707 0.4915
vn 0.5658 0.5958 0.5699
vn -0.5920 0.7912 -0.1533
vn -0.6150 0.6670 -0.4205
vn 0.4555 0.2436 0.8562
vn 0.1253 0.1929 0.9731
vn -0.7330 0.5193 -0.4393
vn -0.8654 0.4545 -0.2108
vn -0.0896 0.3468 0.9336
vn -0.6546 -0.5763 0.4893
vn -0.9145 -0.0514 0.4011
vn -0.1666 0.6136 -0.7718
vn -0.3497 -0.1234 -0.9287
vn -0.9033 -0.4288 0.0102
vn 0.1595 0.8729 -0.4611
vn -0.0437 0.7744 -0.6311
vn -0.5633 0.4627 0.6845
vn -0.7334 0.0937 0.6732
vn 0.0372 0.7911 -0.6106
vn -0.3032 -0.9072 -0.2916
vn -0.7042 0.7098 0.0145
vn 0.1841 0.9674 -0.1735
vn 0.7569 0.6534 0.0107
vn -0.8660 0.4680 0.1760
vn -0.8876 0.4357 -0.1490
vn 0.8133 0.5809 -0.0317
vn 0.7755 0.5140 -0.3665
vn -0.7418 0.4411 -0.5051
vn 0.1455 0.3666 -0.9189
vn 0.0350 0.3776 -0.9253
vn 0.1998 -0.7412 -0.6408
vn 0.3602 0.8965 0.2579
vn 0.0954 0.5466 0.8319
vn -0.0558 0.7404 -0.6698
vn 0.2404 0.6433 -0.7269
vn 0.1003 0.2860 0.9529
vn 0.3144 0.1335 0.9398
vn 0.3473 0.6695 -0.6566
vn 0.8235 0.2249 -0.5208
vn 0.7360 -0.0390 0.6759
vn 0.8564 -0.5161 0.0121
vn -0.7671 0.4085 0.4947
vn 0.5191 0.8459 -0.1225
vn 0.6055 0.7949 -0.0380
vn -0.6283 0.3051 0.7156
vn -0.3559 0.1015 0.9290
vn 0.7763 0.5985 0.1978
vn 0.7821 0.5550 0.2835
vn -0.1563 -0.1862 0.9700
vn 0.8246 -0.4877 0.2866
vn -0.1819 -0.8766 -0.4456
vn 0.0361 -0.9102 -0.4126
vn 0.0180 -0.9808 -0.1942
vn 0.8936 -0.3728 -0.2498
vn 0.7342 -0.6778 0.0385
vn -0.0922 -0.4634 -0.8813
vn -0.1036 -0.3433 -0.9335
vn 0.3804 -0.8887 0.2559
vn 0.4078 -0.8705 0.2753
vn -0.2996 -0.7056 -0.6421
vn -0.2606 -0.6954 -0.6696
vn 0.1092 -0.9704 -0.2155
vn 0.1573 -0.8571 0.4905
vn 0.2890 -0.8151 0.5021
vn 0.7387 -0.4498 -0.5019
vn 0.8903 -0.1275 -0.4371
vn 0.2955 -0.6283 0.7197
vn 0.9025 -0.2383 -0.3588
vn 0.6902 -0.4566 -0.5614
vn 0.3016 -0.7237 0.6207
vn 0.8955 -0.3047 -0.3244
vn 0.7644 -0.5887 0.2629
vn -0.5195 -0.7622 0.3862
vn -0.5148 -0.7811 0.3533
vn 0.6887 -0.6873 0.2307
vn -0.0351 -0.9967 -0.0728
vn -0.5763 -0.8157 -0.0492
vn -0.4368 -0.8182 -0.3738
vn 0.6067 -0.7421 -0.2847
vn 0.6543 -0.7550 -0.0424
vn 0.2889 -0.7631 -0.5781
vn 0.0837 0.4032 -0.9113
vn -0.0007 -0.7955 -0.6060
vn -0.6305 -0.4313 -0.6452
vn -0.5797 -0.6135 0.5362
vn -0.1129 -0.9936 -0.0074
vn -0.3460 -0.5405 -0.7668
vn -0.1373 -0.6251 -0.7684
vn -0.1789 -0.9199 0.3489
vn -0.4443 -0.7990 0.4051
vn 0.0099 -0.7249 -0.6888
vn -0.3277 -0.8826 -0.3370
vn 0.0556 -0.9818 0.1816
vn 0.5924 -0.5784 -0.5609
vn -0.5557 -0.8300 -0.0482
vn 0.5838 -0.3893 -0.7125
vn 0.4820 -0.3483 -0.8039
vn -0.5898 -0.8042 -0.0731
vn -0.5501 -0.8348 -0.0205
vn 0.2129 -0.1298 -0.9684
vn 0.2545 -0.7401 -0.6224
vn -0.6099 -0.7692 -0.1904
g Sphere_Sphere_red
usemtl red
s 1
f 77/102/59 71/103/60 65/104/61
f 107/105/62 111/106/63 110/107/64 106/108/65
f 105/109/66 109/110/67 108/111/68 104/112/69
f 65/104/61 71/103/60 111/106/63 107/105/62
f 106/108/65 110/107/64 109/110/67 105/109/66
f 104/112/69 108/111/68 112/113/70
f 68/114/71 96/115/72 95/116/73 67/117/74
f 71/103/60 99/118/75 98/119/76 70/120/77
f 69/121/78 97/122/79 96/115/72 68/114/71
f 67/117/74 95/116/73 88/123/80
f 77/124/59 99/118/75 71/103/60
f 70/120/77 98/119/76 97/122/79 69/121/78
f 76/125/81 82/126/82 93/127/83 75/128/84
f 74/129/85 92/130/86 91/131/87 73/132/88
f 72/133/89 90/134/90 94/135/91
f 77/136/59 82/126/82 76/125/81
f 75/128/84 93/127/83 92/130/86 74/129/85
f 73/132/88 91/131/87 90/134/90 72/133/89
f 82/137/82 87/138/92 103/139/93 81/140/94
f 80/141/95 102/142/96 101/143/97 79/144/98
f 78/145/99 100/146/100 89/147/101
f 77/148/59 87/138/92 82/137/82
f 81/140/94 103/139/93 102/142/96 80/141/95
f 79/144/98 101/143/97 100/146/100 78/145/99
f 87/138/92 65/104/61 64/149/102 86/150/103
f 85/151/104 63/152/105 62/153/106 84/154/107
f 83/155/108 61/156/109 66/157/110
f 77/158/59 65/104/61 87/138/92
f 86/150/103 64/149/102 63/152/105 85/151/104
f 84/154/107 62/153/106 61/156/109 83/155/108
f 129/159/111 117/160/112 123/161/113
f 116/162/114 115/163/115 121/164/116 122/165/117
f 114/166/118 113/167/119 119/168/120 120/169/121
f 117/160/112 116/162/114 122/165/117 123/161/113
f 115/163/115 114/166/118 120/169/121 121/164/116
f 113/167/119 118/170/122 119/168/120
f 130/171/123 131/172/124 124/173/125 125/174/126
f 123/161/113 132/175/127 127/176/128 128/177/129
f 133/178/130 130/171/123 125/174/126 126/179/131
f 131/172/124 163/180/132 124/173/125
f 129/181/111 123/161/113 128/177/129
f 132/175/127 133/178/130 126/179/131 127/176/128
f 139/182/133 140/183/134 137/184/135 138/185/136
f 141/186/137 142/187/138 135/188/139 136/189/140
f 143/190/141 155/191/142 134/192/143
f 129/193/111 139/182/133 138/185/136
f 140/183/134 141/186/137 136/189/140 137/184/135
f 142/187/138 143/190/141 134/192/143 135/188/139
f 138/194/136 149/195/144 147/196/145 148/197/146
f 150/198/147 151/199/148 145/200/149 146/201/150
f 152/202/151 164/203/152 144/204/153
f 129/205/111 138/194/136 148/197/146
f 149/195/144 150/198/147 146/201/150 147/196/145
f 151/199/148 152/202/151 144/204/153 145/200/149
f 148/197/146 157/206/154 158/207/155 117/160/112
f 160/208/156 161/209/157 162/210/158 159/211/159
f 156/212/160 153/213/161 154/214/162
f 129/215/111 148/197/146 117/160/112
f 157/206/154 160/208/156 159/211/159 158/207/155
f 161/209/157 156/212/160 154/214/162 162/210/158
f 79/144/98 78/145/99 152/202/151 151/199/148
f 109/110/67 110/107/64 121/164/116 120/169/121
f 78/145/99 89/147/101 164/203/152 152/202/151
f 100/146/100 101/143/97 145/200/149 144/204/153
f 110/107/64 111/106/63 122/165/117 121/164/116
f 80/141/95 79/144/98 151/199/148 150/198/147
f 101/143/97 102/142/96 146/201/150 145/200/149
f 111/106/63 71/103/60 123/161/113 122/165/117
f 81/140/94 80/141/95 150/198/147 149/195/144
f 102/142/96 103/139/93 147/196/145 146/201/150
f 82/137/82 81/140/94 149/195/144 138/194/136
f 103/139/93 87/138/92 148/197/146 147/196/145
f 73/132/88 72/133/89 143/190/141 142/187/138
f 74/129/85 73/132/88 142/187/138 141/186/137
f 75/128/84 74/129/85 141/186/137 140/183/134
f 76/125/81 75/128/84 140/183/134 139/182/133
f 95/116/73 96/115/72 125/174/126 124/173/125
f 77/136/59 76/125/81 139/182/133 129/193/111
f 96/115/72 97/122/79 126/179/131 125/174/126
f 84/154/107 83/155/108 156/212/160 161/209/157
f 66/157/110 61/156/109 154/214/162 153/213/161
f 97/122/79 98/119/76 127/176/128 126/179/131
f 85/151/104 84/154/107 161/209/157 160/208/156
f 98/119/76 99/118/75 128/177/129 127/176/128
f 86/150/103 85/151/104 160/208/156 157/206/154
f 99/118/75 77/124/59 129/181/111 128/177/129
f 87/138/92 86/150/103 157/206/154 148/197/146
f 72/133/89 94/135/91 155/191/142 143/190/141
f 61/156/109 62/153/106 162/210/158 154/214/162
f 94/135/91 90/134/90 134/192/143 155/191/142
f 62/153/106 63/152/105 159/211/159 162/210/158
f 63/152/105 64/149/102 158/207/155 159/211/159
f 83/155/108 66/157/110 153/213/161 156/212/160
f 64/149/102 65/104/61 117/160/112 158/207/155
f 67/117/74 88/123/80 163/180/132 131/172/124
f 90/134/90 91/131/87 135/188/139 134/192/143
f 68/114/71 67/117/74 131/172/124 130/171/123
f 91/131/87 92/130/86 136/189/140 135/188/139
f 69/121/78 68/114/71 130/171/123 133/178/130
f 92/130/86 93/127/83 137/184/135 136/189/140
f 105/109/66 104/112/69 113/167/119 114/166/118
f 70/120/77 69/121/78 133/178/130 132/175/127
f 93/127/83 82/126/82 138/185/136 137/184/135
f 106/108/65 105/109/66 114/166/118 115/163/115
f 71/103/60 70/120/77 132/175/127 123/161/113
f 107/105/62 106/108/65 115/163/115 116/162/114
f 104/112/69 112/113/70 118/170/122 113/167/119
f 65/104/61 107/105/62 116/162/114 117/160/112
f 88/123/80 95/116/73 124/173/125 163/180/132
f 112/113/70 108/111/68 119/168/120 118/170/122
f 89/147/101 100/146/100 144/204/153 164/203/152
f 108/111/68 109/110/67 120/169/121 119/168/120
