# Blender v2.82 (sub 7) OBJ File: 'soilTilled.blend'
# www.blender.org
mtllib rocks1.mtl
o Cube
v -0.166357 -0.031373 0.407266
v 0.043904 0.308832 0.319141
v -0.329620 0.199541 0.240951
v -0.131446 0.574469 0.284922
v -0.110207 -0.011792 0.049026
v 0.109491 0.396791 0.139331
v -0.272159 0.249681 -0.005738
v -0.086962 0.659672 0.032003
v -0.303033 0.037119 0.370691
v -0.029023 0.107352 0.434223
v -0.019138 0.476258 0.342830
v -0.288748 0.412081 0.262055
v -0.295567 0.171312 0.117486
v -0.086662 0.680676 0.170191
v -0.199481 0.504826 -0.002866
v -0.251283 0.086831 -0.024485
v 0.039227 0.576241 0.053328
v 0.061142 0.148260 0.068380
v -0.139871 -0.074970 0.252775
v 0.174326 0.358073 0.277613
v 0.089025 0.617027 0.226162
v -0.320535 -0.015294 0.177636
v 0.094143 0.056636 0.292329
v -0.133745 0.327329 -0.005168
v -0.253473 0.486631 0.141916
v -0.171882 0.237334 0.395920
v -0.241025 -0.010666 0.402422
v 0.005648 0.203389 0.364377
v -0.069099 0.538560 0.327277
v -0.317425 0.289314 0.244100
v -0.306822 0.192304 0.178670
v -0.083645 0.687044 0.095893
v -0.222446 0.385114 -0.001592
v -0.279980 0.163829 -0.027751
v 0.080021 0.497953 0.091018
v -0.021346 0.046183 0.037853
v -0.122067 -0.056482 0.148361
v 0.128193 0.334878 0.312654
v -0.343503 0.111817 0.314074
v -0.090646 0.022739 0.440491
v 0.009577 0.398096 0.328048
v -0.217912 0.503376 0.274023
v -0.297907 0.212428 0.040855
v -0.101252 0.642397 0.238207
v -0.160869 0.598834 0.006251
v -0.187319 0.025236 0.000148
v -0.019887 0.632316 0.032042
v 0.097033 0.276371 0.110147
v -0.156779 -0.066852 0.343910
v 0.164493 0.381200 0.213266
v 0.139220 0.511772 0.256794
v 0.003145 0.678228 0.192997
v 0.083501 0.620177 0.130404
v 0.056419 0.569549 0.310462
v -0.245475 -0.070389 0.219321
v -0.341610 0.079977 0.136805
v -0.329660 -0.008364 0.292185
v -0.289504 0.017627 0.063028
v 0.030318 0.074186 0.382649
v 0.136938 0.077959 0.173586
v -0.025041 -0.030047 0.284068
v 0.189725 0.186439 0.282789
v -0.080585 0.235124 0.011078
v -0.155188 0.433389 -0.018933
v -0.197392 0.189118 -0.042893
v -0.049099 0.474241 0.015476
v -0.218518 0.502977 0.076110
v -0.299631 0.468280 0.199030
v -0.274515 0.337341 0.111706
v -0.167435 0.614866 0.165322
v -0.241695 0.330325 0.322283
v -0.098521 0.165162 0.440129
v -0.246182 0.121521 0.402758
v -0.100660 0.356461 0.350574
v -0.049871 0.277903 0.354180
v -0.172120 0.057413 0.442787
v -0.310778 0.211330 0.330291
v -0.190671 0.576849 0.229758
v -0.295238 0.318860 0.173886
v -0.271614 0.376233 0.046242
v -0.102636 0.558862 -0.010488
v -0.207785 0.290074 -0.030546
v -0.126093 0.106143 -0.029437
v 0.204356 0.221253 0.199728
v -0.005364 -0.014388 0.152569
v -0.055887 -0.019833 0.382985
v -0.314574 0.104632 0.038318
v -0.359004 0.083033 0.235804
v -0.256416 -0.059314 0.331490
v -0.021419 0.627278 0.277069
v 0.003996 0.679715 0.102477
v 0.129631 0.519760 0.167305
v 0.098880 0.469027 0.318432
v -0.217196 -0.041045 0.097666
v 0.105645 0.187923 0.332792
v 0.004631 0.383348 0.056408
v -0.165660 0.630013 0.077012
v -0.158635 0.447410 0.327108
vt 0.562500 0.187500
vt 0.625000 0.187500
vt 0.625000 0.250000
vt 0.562500 0.250000
vt 0.562500 0.437500
vt 0.625000 0.437500
vt 0.625000 0.500000
vt 0.562500 0.500000
vt 0.562500 0.687500
vt 0.625000 0.687500
vt 0.625000 0.750000
vt 0.562500 0.750000
vt 0.562500 0.937500
vt 0.625000 0.937500
vt 0.625000 1.000000
vt 0.562500 1.000000
vt 0.312500 0.687500
vt 0.375000 0.687500
vt 0.375000 0.750000
vt 0.312500 0.750000
vt 0.812500 0.687500
vt 0.875000 0.687500
vt 0.875000 0.750000
vt 0.812500 0.750000
vt 0.687500 0.687500
vt 0.750000 0.687500
vt 0.750000 0.750000
vt 0.687500 0.750000
vt 0.687500 0.562500
vt 0.750000 0.562500
vt 0.750000 0.625000
vt 0.687500 0.625000
vt 0.812500 0.562500
vt 0.875000 0.562500
vt 0.875000 0.625000
vt 0.812500 0.625000
vt 0.187500 0.687500
vt 0.250000 0.687500
vt 0.250000 0.750000
vt 0.187500 0.750000
vt 0.187500 0.562500
vt 0.250000 0.562500
vt 0.250000 0.625000
vt 0.187500 0.625000
vt 0.312500 0.562500
vt 0.375000 0.562500
vt 0.375000 0.625000
vt 0.312500 0.625000
vt 0.437500 0.937500
vt 0.500000 0.937500
vt 0.500000 1.000000
vt 0.437500 1.000000
vt 0.437500 0.812500
vt 0.500000 0.812500
vt 0.500000 0.875000
vt 0.437500 0.875000
vt 0.562500 0.812500
vt 0.625000 0.812500
vt 0.625000 0.875000
vt 0.562500 0.875000
vt 0.437500 0.687500
vt 0.500000 0.687500
vt 0.500000 0.750000
vt 0.437500 0.750000
vt 0.437500 0.562500
vt 0.500000 0.562500
vt 0.500000 0.625000
vt 0.437500 0.625000
vt 0.562500 0.562500
vt 0.625000 0.562500
vt 0.625000 0.625000
vt 0.562500 0.625000
vt 0.437500 0.437500
vt 0.500000 0.437500
vt 0.500000 0.500000
vt 0.437500 0.500000
vt 0.437500 0.312500
vt 0.500000 0.312500
vt 0.500000 0.375000
vt 0.437500 0.375000
vt 0.562500 0.312500
vt 0.625000 0.312500
vt 0.625000 0.375000
vt 0.562500 0.375000
vt 0.437500 0.187500
vt 0.500000 0.187500
vt 0.500000 0.250000
vt 0.437500 0.250000
vt 0.437500 0.062500
vt 0.500000 0.062500
vt 0.500000 0.125000
vt 0.437500 0.125000
vt 0.562500 0.062500
vt 0.625000 0.062500
vt 0.625000 0.125000
vt 0.562500 0.125000
vt 0.500000 0.000000
vt 0.562500 0.000000
vt 0.625000 0.000000
vt 0.375000 0.062500
vt 0.375000 0.125000
vt 0.375000 0.000000
vt 0.437500 0.000000
vt 0.375000 0.187500
vt 0.375000 0.250000
vt 0.375000 0.312500
vt 0.375000 0.375000
vt 0.375000 0.437500
vt 0.375000 0.500000
vt 0.375000 0.812500
vt 0.375000 0.875000
vt 0.375000 0.937500
vt 0.375000 1.000000
vt 0.250000 0.500000
vt 0.312500 0.500000
vt 0.125000 0.562500
vt 0.125000 0.625000
vt 0.125000 0.500000
vt 0.187500 0.500000
vt 0.125000 0.687500
vt 0.125000 0.750000
vt 0.750000 0.500000
vt 0.812500 0.500000
vt 0.875000 0.500000
vt 0.687500 0.500000
vn -0.3889 0.3642 0.8462
vn -0.4990 0.7927 -0.3502
vn 0.6217 -0.0199 -0.7830
vn 0.1868 0.2039 0.9610
vn 0.0165 -0.8725 -0.4883
vn 0.1110 -0.0337 0.9933
vn 0.9734 0.2149 -0.0794
vn 0.5883 0.8086 0.0054
vn 0.0242 0.3994 0.9164
vn -0.0773 -0.9935 0.0832
vn -0.9455 -0.3090 -0.1030
vn -0.7091 -0.3380 -0.6188
vn 0.5296 -0.4108 0.7421
vn 0.5634 -0.8260 0.0186
vn 0.9823 0.1613 0.0954
vn 0.4597 0.0183 -0.8879
vn 0.3057 0.0405 -0.9513
vn 0.4081 0.0202 -0.9127
vn -0.8476 0.3114 -0.4296
vn -0.8815 0.1331 -0.4531
vn -0.6024 0.7539 0.2622
vn -0.7588 0.2827 0.5867
vn -0.3043 0.2405 0.9217
vn 0.1905 0.0266 0.9813
vn 0.1658 0.4196 0.8924
vn 0.4242 0.4267 0.7987
vn 0.2954 0.1695 0.9402
vn -0.4798 -0.0210 0.8771
vn -0.1482 -0.3756 0.9149
vn 0.0577 0.0057 0.9983
vn -0.9618 0.2103 0.1751
vn -0.6746 0.1382 0.7252
vn -0.4531 0.3291 0.8285
vn -0.7510 0.6477 -0.1284
vn -0.6899 0.5111 0.5126
vn -0.5321 0.6003 0.5971
vn -0.9628 0.0983 -0.2516
vn -0.9471 0.1018 -0.3044
vn -0.9954 0.0927 -0.0248
vn -0.8138 0.2238 -0.5363
vn -0.9870 0.1418 0.0759
vn -0.9458 0.2871 -0.1519
vn 0.3308 -0.0661 -0.9414
vn -0.1569 0.1434 -0.9772
vn 0.0794 0.3767 -0.9229
vn -0.1833 0.0099 -0.9830
vn -0.4692 0.2230 -0.8545
vn -0.3360 0.1332 -0.9324
vn 0.2512 -0.5125 -0.8211
vn 0.0009 -0.2540 -0.9672
vn 0.3794 0.1139 -0.9182
vn 0.8518 -0.5144 0.0993
vn 0.6971 -0.0873 -0.7116
vn 0.7353 0.1718 -0.6556
vn 0.3611 -0.9293 -0.0771
vn 0.3873 -0.8244 -0.4128
vn 0.6056 -0.5469 -0.5781
vn 0.2102 -0.7843 0.5836
vn 0.3375 -0.9251 0.1740
vn 0.5965 -0.6956 0.4005
vn -0.8791 -0.3419 -0.3319
vn -0.9541 0.2986 -0.0224
vn -0.9208 0.1614 -0.3550
vn -0.9295 -0.1670 0.3289
vn -0.9622 0.2477 -0.1134
vn -0.9069 0.3615 -0.2165
vn -0.1866 -0.8289 0.5274
vn -0.6644 -0.5338 0.5231
vn -0.5861 -0.8101 0.0125
vn 0.3277 0.7629 0.5573
vn -0.0872 0.8689 0.4873
vn -0.2290 0.5920 0.7728
vn 0.6277 0.4979 -0.5983
vn 0.2091 0.8358 -0.5076
vn 0.0469 0.9977 0.0486
vn 0.8207 -0.0044 -0.5713
vn 0.8103 0.1587 -0.5641
vn 0.9106 0.4102 -0.0496
vn 0.6655 0.1867 0.7226
vn 0.6814 0.4193 0.5999
vn 0.2049 0.0443 0.9778
vn -0.0099 -0.9779 -0.2089
vn -0.4623 -0.8220 -0.3327
vn -0.3382 -0.6956 -0.6338
vn 0.5026 0.2144 0.8375
vn 0.6425 -0.2765 0.7147
vn 0.5396 0.0546 0.8401
vn 0.4737 0.0691 -0.8780
vn 0.4192 -0.0385 -0.9071
vn 0.5166 -0.1062 -0.8496
vn -0.8983 0.3816 -0.2177
vn -0.8689 0.4831 -0.1083
vn -0.6081 0.7891 0.0865
vn -0.4902 0.2960 0.8198
vn -0.2425 0.3158 0.9173
vn -0.1412 0.1497 0.9786
g Cube_Cube_rock
usemtl rock
s off
f 98/1/1 29/2/1 4/3/1 42/4/1
f 97/5/2 32/6/2 8/7/2 45/8/2
f 96/9/3 35/10/3 6/11/3 48/12/3
f 95/13/4 38/14/4 2/15/4 28/16/4
f 94/17/5 46/18/5 5/19/5 37/20/5
f 93/21/6 41/22/6 2/23/6 38/24/6
f 92/25/7 51/26/7 20/27/7 50/28/7
f 91/29/8 52/30/8 21/31/8 53/32/8
f 90/33/9 29/34/9 11/35/9 54/36/9
f 89/37/10 55/38/10 19/39/10 49/40/10
f 88/41/11 56/42/11 22/43/11 57/44/11
f 87/45/12 34/46/12 16/47/12 58/48/12
f 86/49/13 59/50/13 10/51/13 40/52/13
f 85/53/14 60/54/14 23/55/14 61/56/14
f 84/57/15 50/58/15 20/59/15 62/60/15
f 83/61/16 63/62/16 18/63/16 36/64/16
f 82/65/17 64/66/17 24/67/17 65/68/17
f 81/69/18 47/70/18 17/71/18 66/72/18
f 80/73/19 67/74/19 15/75/19 33/76/19
f 79/77/20 68/78/20 25/79/20 69/80/20
f 78/81/21 44/82/21 14/83/21 70/84/21
f 77/85/22 71/86/22 12/87/22 30/88/22
f 76/89/23 72/90/23 26/91/23 73/92/23
f 75/93/24 41/94/24 11/95/24 74/96/24
f 72/90/25 75/93/25 74/96/25 26/91/25
f 10/97/26 28/98/26 75/93/26 72/90/26
f 28/98/27 2/99/27 41/94/27 75/93/27
f 27/100/28 76/89/28 73/92/28 9/101/28
f 1/102/29 40/103/29 76/89/29 27/100/29
f 40/103/30 10/97/30 72/90/30 76/89/30
f 39/104/31 77/85/31 30/88/31 3/105/31
f 9/101/32 73/92/32 77/85/32 39/104/32
f 73/92/33 26/91/33 71/86/33 77/85/33
f 68/78/34 78/81/34 70/84/34 25/79/34
f 12/87/35 42/4/35 78/81/35 68/78/35
f 42/4/36 4/3/36 44/82/36 78/81/36
f 31/106/37 79/77/37 69/80/37 13/107/37
f 3/105/38 30/88/38 79/77/38 31/106/38
f 30/88/39 12/87/39 68/78/39 79/77/39
f 43/108/40 80/73/40 33/76/40 7/109/40
f 13/107/41 69/80/41 80/73/41 43/108/41
f 69/80/42 25/79/42 67/74/42 80/73/42
f 64/66/43 81/69/43 66/72/43 24/67/43
f 15/75/44 45/8/44 81/69/44 64/66/44
f 45/8/45 8/7/45 47/70/45 81/69/45
f 34/46/46 82/65/46 65/68/46 16/47/46
f 7/109/47 33/76/47 82/65/47 34/46/47
f 33/76/48 15/75/48 64/66/48 82/65/48
f 46/18/49 83/61/49 36/64/49 5/19/49
f 16/47/50 65/68/50 83/61/50 46/18/50
f 65/68/51 24/67/51 63/62/51 83/61/51
f 60/54/52 84/57/52 62/60/52 23/55/52
f 18/63/53 48/12/53 84/57/53 60/54/53
f 48/12/54 6/11/54 50/58/54 84/57/54
f 37/110/55 85/53/55 61/56/55 19/111/55
f 5/19/56 36/64/56 85/53/56 37/110/56
f 36/64/57 18/63/57 60/54/57 85/53/57
f 49/112/58 86/49/58 40/52/58 1/113/58
f 19/111/59 61/56/59 86/49/59 49/112/59
f 61/56/60 23/55/60 59/50/60 86/49/60
f 56/42/61 87/45/61 58/48/61 22/43/61
f 13/114/62 43/115/62 87/45/62 56/42/62
f 43/115/63 7/109/63 34/46/63 87/45/63
f 39/116/64 88/41/64 57/44/64 9/117/64
f 3/118/65 31/119/65 88/41/65 39/116/65
f 31/119/66 13/114/66 56/42/66 88/41/66
f 27/120/67 89/37/67 49/40/67 1/121/67
f 9/117/68 57/44/68 89/37/68 27/120/68
f 57/44/69 22/43/69 55/38/69 89/37/69
f 52/30/70 90/33/70 54/36/70 21/31/70
f 14/122/71 44/123/71 90/33/71 52/30/71
f 44/123/72 4/124/72 29/34/72 90/33/72
f 47/70/73 91/29/73 53/32/73 17/71/73
f 8/7/74 32/125/74 91/29/74 47/70/74
f 32/125/75 14/122/75 52/30/75 91/29/75
f 35/10/76 92/25/76 50/28/76 6/11/76
f 17/71/77 53/32/77 92/25/77 35/10/77
f 53/32/78 21/31/78 51/26/78 92/25/78
f 51/26/79 93/21/79 38/24/79 20/27/79
f 21/31/80 54/36/80 93/21/80 51/26/80
f 54/36/81 11/35/81 41/22/81 93/21/81
f 55/38/82 94/17/82 37/20/82 19/39/82
f 22/43/83 58/48/83 94/17/83 55/38/83
f 58/48/84 16/47/84 46/18/84 94/17/84
f 59/50/85 95/13/85 28/16/85 10/51/85
f 23/55/86 62/60/86 95/13/86 59/50/86
f 62/60/87 20/59/87 38/14/87 95/13/87
f 63/62/88 96/9/88 48/12/88 18/63/88
f 24/67/89 66/72/89 96/9/89 63/62/89
f 66/72/90 17/71/90 35/10/90 96/9/90
f 67/74/91 97/5/91 45/8/91 15/75/91
f 25/79/92 70/84/92 97/5/92 67/74/92
f 70/84/93 14/83/93 32/6/93 97/5/93
f 71/86/94 98/1/94 42/4/94 12/87/94
f 26/91/95 74/96/95 98/1/95 71/86/95
f 74/96/96 11/95/96 29/2/96 98/1/96
o Cube.001
v 0.145676 -0.064854 -0.064583
v 0.138316 0.144796 -0.123151
v -0.039045 0.137851 -0.209226
v 0.033586 0.430424 -0.139556
v 0.204893 -0.057722 -0.390925
v 0.306391 0.205306 -0.281261
v -0.000586 0.173856 -0.425323
v 0.101668 0.528024 -0.316261
v 0.016018 0.012407 -0.115993
v 0.199333 0.040768 -0.074281
v 0.065311 0.291594 -0.118736
v 0.002065 0.292553 -0.189398
v -0.011473 0.129580 -0.317263
v 0.058544 0.554821 -0.187318
v 0.032626 0.375684 -0.405675
v 0.059317 0.037091 -0.452624
v 0.174403 0.381419 -0.325315
v 0.347142 0.075915 -0.376543
v 0.177762 -0.110190 -0.197630
v 0.282632 0.153676 -0.176427
v 0.156088 0.422577 -0.158842
v 0.011654 -0.049591 -0.267670
v 0.363868 -0.005462 -0.171362
v 0.109787 0.231233 -0.438818
v 0.042265 0.342875 -0.269321
v -0.051627 0.158394 -0.089135
v 0.084493 -0.044789 -0.073164
v 0.184102 0.098926 -0.107315
v 0.037832 0.376087 -0.117895
v -0.028258 0.203904 -0.200917
v -0.019327 0.130185 -0.255842
v 0.076638 0.562575 -0.254129
v 0.012152 0.269591 -0.425763
v 0.015709 0.108984 -0.447071
v 0.276190 0.321254 -0.282948
v 0.282564 -0.003995 -0.401446
v 0.195308 -0.095963 -0.301462
v 0.209821 0.143660 -0.143466
v -0.045087 0.082892 -0.164658
v 0.187221 -0.024048 -0.049130
v 0.069268 0.207154 -0.115622
v 0.017411 0.377177 -0.167845
v -0.011046 0.149237 -0.382530
v 0.044637 0.503083 -0.147623
v 0.090096 0.450051 -0.345322
v 0.130103 -0.023469 -0.435332
v 0.144922 0.473588 -0.315245
v 0.329428 0.135549 -0.333537
v 0.160357 -0.098618 -0.108174
v 0.308256 0.171147 -0.232042
v 0.217062 0.284944 -0.171812
v 0.141373 0.545864 -0.142921
v 0.169701 0.427232 -0.237249
v 0.118206 0.364418 -0.122991
v 0.080255 -0.103450 -0.230109
v -0.016373 0.033853 -0.302950
v 0.010272 -0.035753 -0.171156
v 0.033110 -0.023799 -0.373580
v 0.279200 0.008060 -0.103964
v 0.425361 0.012349 -0.272610
v 0.278745 -0.069452 -0.178287
v 0.385870 0.062871 -0.167090
v 0.193540 0.153051 -0.425489
v 0.068323 0.320122 -0.438873
v 0.087692 0.127324 -0.461747
v 0.154977 0.324772 -0.390438
v 0.048057 0.358144 -0.326352
v 0.008702 0.333306 -0.227120
v 0.021011 0.234913 -0.309987
v 0.038262 0.461944 -0.216215
v -0.027658 0.231456 -0.141885
v 0.073286 0.091616 -0.078504
v -0.024663 0.081536 -0.087351
v 0.009789 0.228348 -0.110880
v 0.051393 0.156844 -0.097540
v 0.109832 0.018182 -0.058388
v -0.076178 0.150304 -0.135173
v 0.028700 0.438084 -0.184366
v 0.004553 0.225196 -0.256477
v 0.005200 0.259850 -0.373147
v 0.136344 0.418400 -0.376675
v 0.043425 0.205222 -0.452247
v 0.174973 0.055498 -0.456063
v 0.432061 0.081869 -0.235656
v 0.305057 -0.057363 -0.292600
v 0.240968 -0.058234 -0.089072
v -0.003379 0.056822 -0.389667
v -0.023239 0.041162 -0.219659
v 0.071300 -0.092705 -0.129060
v 0.082663 0.470602 -0.111184
v 0.158091 0.544760 -0.229066
v 0.273915 0.332061 -0.215777
v 0.144146 0.244867 -0.139275
v 0.101819 -0.082573 -0.342455
v 0.276985 0.067978 -0.128294
v 0.230654 0.239760 -0.370168
v 0.055482 0.470130 -0.273838
v 0.016610 0.306480 -0.142522
vt 0.562500 0.187500
vt 0.625000 0.187500
vt 0.625000 0.250000
vt 0.562500 0.250000
vt 0.562500 0.437500
vt 0.625000 0.437500
vt 0.625000 0.500000
vt 0.562500 0.500000
vt 0.562500 0.687500
vt 0.625000 0.687500
vt 0.625000 0.750000
vt 0.562500 0.750000
vt 0.562500 0.937500
vt 0.625000 0.937500
vt 0.625000 1.000000
vt 0.562500 1.000000
vt 0.312500 0.687500
vt 0.375000 0.687500
vt 0.375000 0.750000
vt 0.312500 0.750000
vt 0.812500 0.687500
vt 0.875000 0.687500
vt 0.875000 0.750000
vt 0.812500 0.750000
vt 0.687500 0.687500
vt 0.750000 0.687500
vt 0.750000 0.750000
vt 0.687500 0.750000
vt 0.687500 0.562500
vt 0.750000 0.562500
vt 0.750000 0.625000
vt 0.687500 0.625000
vt 0.812500 0.562500
vt 0.875000 0.562500
vt 0.875000 0.625000
vt 0.812500 0.625000
vt 0.187500 0.687500
vt 0.250000 0.687500
vt 0.250000 0.750000
vt 0.187500 0.750000
vt 0.187500 0.562500
vt 0.250000 0.562500
vt 0.250000 0.625000
vt 0.187500 0.625000
vt 0.312500 0.562500
vt 0.375000 0.562500
vt 0.375000 0.625000
vt 0.312500 0.625000
vt 0.437500 0.937500
vt 0.500000 0.937500
vt 0.500000 1.000000
vt 0.437500 1.000000
vt 0.437500 0.812500
vt 0.500000 0.812500
vt 0.500000 0.875000
vt 0.437500 0.875000
vt 0.562500 0.812500
vt 0.625000 0.812500
vt 0.625000 0.875000
vt 0.562500 0.875000
vt 0.437500 0.687500
vt 0.500000 0.687500
vt 0.500000 0.750000
vt 0.437500 0.750000
vt 0.437500 0.562500
vt 0.500000 0.562500
vt 0.500000 0.625000
vt 0.437500 0.625000
vt 0.562500 0.562500
vt 0.625000 0.562500
vt 0.625000 0.625000
vt 0.562500 0.625000
vt 0.437500 0.437500
vt 0.500000 0.437500
vt 0.500000 0.500000
vt 0.437500 0.500000
vt 0.437500 0.312500
vt 0.500000 0.312500
vt 0.500000 0.375000
vt 0.437500 0.375000
vt 0.562500 0.312500
vt 0.625000 0.312500
vt 0.625000 0.375000
vt 0.562500 0.375000
vt 0.437500 0.187500
vt 0.500000 0.187500
vt 0.500000 0.250000
vt 0.437500 0.250000
vt 0.437500 0.062500
vt 0.500000 0.062500
vt 0.500000 0.125000
vt 0.437500 0.125000
vt 0.562500 0.062500
vt 0.625000 0.062500
vt 0.625000 0.125000
vt 0.562500 0.125000
vt 0.500000 0.000000
vt 0.562500 0.000000
vt 0.625000 0.000000
vt 0.375000 0.062500
vt 0.375000 0.125000
vt 0.375000 0.000000
vt 0.437500 0.000000
vt 0.375000 0.187500
vt 0.375000 0.250000
vt 0.375000 0.312500
vt 0.375000 0.375000
vt 0.375000 0.437500
vt 0.375000 0.500000
vt 0.375000 0.812500
vt 0.375000 0.875000
vt 0.375000 0.937500
vt 0.375000 1.000000
vt 0.250000 0.500000
vt 0.312500 0.500000
vt 0.125000 0.562500
vt 0.125000 0.625000
vt 0.125000 0.500000
vt 0.187500 0.500000
vt 0.125000 0.687500
vt 0.125000 0.750000
vt 0.750000 0.500000
vt 0.812500 0.500000
vt 0.875000 0.500000
vt 0.687500 0.500000
vn -0.9184 0.1167 0.3780
vn -0.8207 0.2972 -0.4879
vn 0.7740 0.3632 -0.5186
vn 0.3011 0.4887 0.8189
vn -0.0097 -0.8813 -0.4725
vn 0.2527 0.1395 0.9574
vn 0.6934 0.1874 0.6958
vn 0.9792 0.0888 0.1824
vn 0.0563 -0.0475 0.9973
vn -0.0965 -0.9900 0.1026
vn -0.9335 -0.3586 -0.0007
vn -0.7071 -0.4111 -0.5753
vn 0.4907 0.0767 0.8680
vn 0.5334 -0.8398 0.1008
vn 0.5282 0.6820 0.5058
vn 0.4084 0.0925 -0.9081
vn 0.1470 0.1311 -0.9804
vn 0.8566 0.2776 -0.4349
vn -0.9589 0.2594 0.1153
vn -0.8798 0.2370 -0.4121
vn -0.9676 0.2459 -0.0576
vn -0.8891 0.4181 -0.1861
vn -0.0999 0.1020 0.9898
vn 0.1285 0.1411 0.9816
vn 0.0824 0.2657 0.9605
vn 0.2002 0.4315 0.8796
vn 0.3096 0.3949 0.8650
vn -0.4805 -0.3237 0.8151
vn -0.1950 -0.1564 0.9683
vn 0.0856 0.3237 0.9423
vn -0.8945 -0.0095 -0.4469
vn -0.8261 -0.5233 0.2091
vn -0.8834 0.1445 0.4457
vn -0.8822 0.2372 -0.4067
vn -0.9837 0.1796 0.0116
vn -0.9724 0.1881 0.1382
vn -0.9456 0.2720 -0.1785
vn -0.8807 0.2098 -0.4248
vn -0.9424 0.2178 -0.2537
vn -0.9814 0.1434 -0.1275
vn -0.9615 0.2027 0.1856
vn -0.9600 0.2316 0.1575
vn 0.4672 0.2182 -0.8568
vn -0.0147 0.5859 -0.8103
vn 0.2256 0.5240 -0.8213
vn -0.1958 -0.0163 -0.9805
vn -0.5683 0.0958 -0.8172
vn -0.4030 0.2174 -0.8890
vn 0.2479 -0.4331 -0.8666
vn -0.0018 -0.1730 -0.9849
vn 0.2752 0.1945 -0.9415
vn 0.8317 -0.3108 0.4601
vn 0.7883 0.3711 -0.4908
vn 0.7148 0.6930 -0.0940
vn 0.3568 -0.9333 -0.0408
vn 0.4010 -0.8214 -0.4056
vn 0.5913 -0.5551 -0.5850
vn 0.2306 -0.6537 0.7207
vn 0.3571 -0.9064 0.2259
vn 0.6150 -0.5476 0.5673
vn -0.8673 -0.4231 -0.2622
vn -0.9955 -0.0182 -0.0930
vn -0.9376 -0.0807 -0.3383
vn -0.8802 -0.4225 0.2161
vn -0.9379 -0.1181 -0.3262
vn -0.9946 0.0195 -0.1022
vn -0.2498 -0.7502 0.6122
vn -0.7318 -0.4487 0.5129
vn -0.6688 -0.7412 0.0572
vn 0.5538 0.0207 0.8324
vn -0.2981 0.5917 0.7490
vn -0.6130 0.2111 0.7614
vn 0.9614 0.2044 -0.1840
vn 0.5140 0.7174 -0.4703
vn 0.1304 0.9888 0.0727
vn 0.9733 0.2243 0.0484
vn 0.6308 0.7377 -0.2407
vn 0.6534 0.4849 0.5814
vn 0.3561 0.1662 0.9195
vn 0.4826 0.0637 0.8735
vn 0.2364 -0.0281 0.9712
vn -0.0395 -0.9851 -0.1671
vn -0.5235 -0.8062 -0.2756
vn -0.3842 -0.6955 -0.6072
vn 0.3996 0.4477 0.8000
vn 0.4847 0.0617 0.8725
vn 0.3178 0.4483 0.8355
vn 0.5457 0.4163 -0.7273
vn 0.4600 0.2756 -0.8441
vn 0.6004 0.4481 -0.6624
vn -0.9119 0.3918 -0.1226
vn -0.9796 0.0955 -0.1771
vn -0.9349 0.2696 -0.2308
vn -0.9273 0.3211 0.1924
vn -0.5302 0.4930 0.6898
vn -0.4058 0.1201 0.9060
g Cube.001_Cube.001_rock
usemtl rock
s off
f 196/126/97 127/127/97 102/128/97 140/129/97
f 195/130/98 130/131/98 106/132/98 143/133/98
f 194/134/99 133/135/99 104/136/99 146/137/99
f 193/138/100 136/139/100 100/140/100 126/141/100
f 192/142/101 144/143/101 103/144/101 135/145/101
f 191/146/102 139/147/102 100/148/102 136/149/102
f 190/150/103 149/151/103 118/152/103 148/153/103
f 189/154/104 150/155/104 119/156/104 151/157/104
f 188/158/105 127/159/105 109/160/105 152/161/105
f 187/162/106 153/163/106 117/164/106 147/165/106
f 186/166/107 154/167/107 120/168/107 155/169/107
f 185/170/108 132/171/108 114/172/108 156/173/108
f 184/174/109 157/175/109 108/176/109 138/177/109
f 183/178/110 158/179/110 121/180/110 159/181/110
f 182/182/111 148/183/111 118/184/111 160/185/111
f 181/186/112 161/187/112 116/188/112 134/189/112
f 180/190/113 162/191/113 122/192/113 163/193/113
f 179/194/114 145/195/114 115/196/114 164/197/114
f 178/198/115 165/199/115 113/200/115 131/201/115
f 177/202/116 166/203/116 123/204/116 167/205/116
f 176/206/117 142/207/117 112/208/117 168/209/117
f 175/210/118 169/211/118 110/212/118 128/213/118
f 174/214/119 170/215/119 124/216/119 171/217/119
f 173/218/120 139/219/120 109/220/120 172/221/120
f 170/215/121 173/218/121 172/221/121 124/216/121
f 108/222/122 126/223/122 173/218/122 170/215/122
f 126/223/123 100/224/123 139/219/123 173/218/123
f 125/225/124 174/214/124 171/217/124 107/226/124
f 99/227/125 138/228/125 174/214/125 125/225/125
f 138/228/126 108/222/126 170/215/126 174/214/126
f 137/229/127 175/210/127 128/213/127 101/230/127
f 107/226/128 171/217/128 175/210/128 137/229/128
f 171/217/129 124/216/129 169/211/129 175/210/129
f 166/203/130 176/206/130 168/209/130 123/204/130
f 110/212/131 140/129/131 176/206/131 166/203/131
f 140/129/132 102/128/132 142/207/132 176/206/132
f 129/231/133 177/202/133 167/205/133 111/232/133
f 101/230/134 128/213/134 177/202/134 129/231/134
f 128/213/135 110/212/135 166/203/135 177/202/135
f 141/233/136 178/198/136 131/201/136 105/234/136
f 111/232/137 167/205/137 178/198/137 141/233/137
f 167/205/138 123/204/138 165/199/138 178/198/138
f 162/191/139 179/194/139 164/197/139 122/192/139
f 113/200/140 143/133/140 179/194/140 162/191/140
f 143/133/141 106/132/141 145/195/141 179/194/141
f 132/171/142 180/190/142 163/193/142 114/172/142
f 105/234/143 131/201/143 180/190/143 132/171/143
f 131/201/144 113/200/144 162/191/144 180/190/144
f 144/143/145 181/186/145 134/189/145 103/144/145
f 114/172/146 163/193/146 181/186/146 144/143/146
f 163/193/147 122/192/147 161/187/147 181/186/147
f 158/179/148 182/182/148 160/185/148 121/180/148
f 116/188/149 146/137/149 182/182/149 158/179/149
f 146/137/150 104/136/150 148/183/150 182/182/150
f 135/235/151 183/178/151 159/181/151 117/236/151
f 103/144/152 134/189/152 183/178/152 135/235/152
f 134/189/153 116/188/153 158/179/153 183/178/153
f 147/237/154 184/174/154 138/177/154 99/238/154
f 117/236/155 159/181/155 184/174/155 147/237/155
f 159/181/156 121/180/156 157/175/156 184/174/156
f 154/167/157 185/170/157 156/173/157 120/168/157
f 111/239/158 141/240/158 185/170/158 154/167/158
f 141/240/159 105/234/159 132/171/159 185/170/159
f 137/241/160 186/166/160 155/169/160 107/242/160
f 101/243/161 129/244/161 186/166/161 137/241/161
f 129/244/162 111/239/162 154/167/162 186/166/162
f 125/245/163 187/162/163 147/165/163 99/246/163
f 107/242/164 155/169/164 187/162/164 125/245/164
f 155/169/165 120/168/165 153/163/165 187/162/165
f 150/155/166 188/158/166 152/161/166 119/156/166
f 112/247/167 142/248/167 188/158/167 150/155/167
f 142/248/168 102/249/168 127/159/168 188/158/168
f 145/195/169 189/154/169 151/157/169 115/196/169
f 106/132/170 130/250/170 189/154/170 145/195/170
f 130/250/171 112/247/171 150/155/171 189/154/171
f 133/135/172 190/150/172 148/153/172 104/136/172
f 115/196/173 151/157/173 190/150/173 133/135/173
f 151/157/174 119/156/174 149/151/174 190/150/174
f 149/151/175 191/146/175 136/149/175 118/152/175
f 119/156/176 152/161/176 191/146/176 149/151/176
f 152/161/177 109/160/177 139/147/177 191/146/177
f 153/163/178 192/142/178 135/145/178 117/164/178
f 120/168/179 156/173/179 192/142/179 153/163/179
f 156/173/180 114/172/180 144/143/180 192/142/180
f 157/175/181 193/138/181 126/141/181 108/176/181
f 121/180/182 160/185/182 193/138/182 157/175/182
f 160/185/183 118/184/183 136/139/183 193/138/183
f 161/187/184 194/134/184 146/137/184 116/188/184
f 122/192/185 164/197/185 194/134/185 161/187/185
f 164/197/186 115/196/186 133/135/186 194/134/186
f 165/199/187 195/130/187 143/133/187 113/200/187
f 123/204/188 168/209/188 195/130/188 165/199/188
f 168/209/189 112/208/189 130/131/189 195/130/189
f 169/211/190 196/126/190 140/129/190 110/212/190
f 124/216/191 172/221/191 196/126/191 169/211/191
f 172/221/192 109/220/192 127/127/192 196/126/192
