# Blender v2.82 (sub 7) OBJ File: ''
# www.blender.org
mtllib rocks2.mtl
o Cube_Cube.003
v -0.716002 0.126994 0.728393
v -1.023242 1.073438 0.599686
v -0.567330 0.140841 -0.613022
v -0.609533 1.731653 -1.271044
v 0.554539 0.004463 1.058082
v 0.249518 1.031243 0.905000
v 0.722523 0.241352 -0.453102
v 0.761566 1.702018 -0.612262
v -0.666441 0.091443 -0.413023
v -0.720105 0.111105 -0.117372
v -0.754146 0.109163 0.210016
v -0.768010 0.088002 0.524286
v -0.807336 0.254289 0.835639
v -0.957544 0.467198 1.002857
v -0.922245 0.676091 0.869725
v -0.953787 0.888913 0.743418
v -1.280355 1.246192 0.228322
v -1.367038 1.443864 -0.288860
v -1.136702 1.622320 -0.728755
v -0.811230 1.754613 -1.092818
v -0.680055 1.511896 -1.235031
v -0.761710 1.159015 -1.124661
v -0.781707 0.700325 -0.919534
v -0.632598 0.340529 -0.716871
v 0.573009 0.147918 -0.545099
v 0.271171 0.112887 -0.610885
v -0.048568 0.117550 -0.636562
v -0.345919 0.104313 -0.656043
v -0.376372 1.834904 -1.343664
v -0.057887 1.951597 -1.347156
v 0.219566 1.907751 -1.142248
v 0.487246 1.784220 -0.810930
v 0.860642 1.505391 -0.667434
v 0.865439 1.146548 -0.645505
v 0.802698 0.750045 -0.566170
v 0.772220 0.425653 -0.506109
v 0.592958 0.053753 0.761909
v 0.615468 0.153985 0.389753
v 0.670294 0.213026 0.030049
v 0.727110 0.223341 -0.268710
v 0.795689 1.704205 -0.329110
v 0.726979 1.611619 0.074014
v 0.500237 1.395282 0.423869
v 0.326322 1.173195 0.719899
v 0.342502 0.860058 1.060666
v 0.436211 0.619313 1.243324
v 0.557783 0.348297 1.385827
v 0.633968 0.078471 1.296411
v -0.526186 0.085432 0.796439
v -0.253591 0.008895 0.921363
v 0.075246 0.013806 0.972653
v 0.345409 0.007072 1.033221
v 0.042767 1.032030 0.868775
v -0.262357 1.030617 0.788885
v -0.578868 1.034199 0.704123
v -0.819677 1.050883 0.665786
v 0.394795 1.827682 -0.519503
v 0.256287 1.738110 -0.114010
v -0.003784 1.471618 0.253968
v 0.020170 1.243159 0.610595
v 0.064811 1.947809 -0.880948
v -0.238375 1.829547 -0.486512
v -1.007382 1.391953 -0.167547
v -0.513355 1.230190 0.422951
v -0.197725 2.014341 -1.131817
v -0.565152 1.880363 -0.763672
v -1.139542 1.507761 -0.362243
v -1.020250 1.226059 0.212639
v -0.542745 1.911324 -1.149894
v -0.895380 1.799080 -0.795868
v -1.215522 1.552942 -0.359532
v -1.161915 1.282916 0.173413
v -0.413661 0.004338 -0.430562
v -0.485058 -0.006665 -0.132724
v -0.510122 0.006943 0.204105
v -0.529285 0.011785 0.538411
v -0.089670 -0.000828 -0.428221
v -0.176048 -0.018103 -0.170874
v -0.211791 -0.024167 0.202084
v -0.233168 -0.051181 0.602745
v 0.268360 -0.017017 -0.400646
v 0.227188 -0.024699 -0.124947
v 0.167989 -0.014971 0.230987
v 0.121609 -0.053468 0.646306
v 0.550773 0.076128 -0.325669
v 0.475489 0.069262 -0.025726
v 0.423897 0.032052 0.329677
v 0.392328 -0.023579 0.710196
v 0.336696 0.080111 1.353674
v 0.048806 0.177933 1.214711
v -0.275234 0.202216 1.080443
v -0.572736 0.233785 0.957645
v 0.285281 0.374979 1.411533
v 0.007665 0.438358 1.282652
v -0.308458 0.456318 1.119960
v -0.640610 0.441629 1.045285
v 0.225134 0.622437 1.301457
v -0.029361 0.649078 1.225991
v -0.324640 0.650865 1.106542
v -0.639098 0.640992 1.004267
v 0.133705 0.829312 1.097846
v -0.129186 0.832333 1.040065
v -0.401402 0.831569 0.975761
v -0.663260 0.837265 0.911530
v 0.870161 0.425760 -0.287244
v 0.849658 0.414100 0.030247
v 0.754128 0.336070 0.437967
v 0.695157 0.200617 0.859270
v 0.965408 0.741455 -0.325583
v 1.016073 0.733879 -0.022153
v 0.847386 0.581324 0.475351
v 0.674591 0.426333 0.964403
v 1.032341 1.145404 -0.360819
v 1.009895 1.084156 0.058436
v 0.786560 0.877938 0.542934
v 0.594478 0.691026 0.973021
v 0.996453 1.486367 -0.322734
v 0.938117 1.380179 0.116253
v 0.700154 1.174685 0.503372
v 0.498353 0.976240 0.855149
v -0.350068 0.319926 -0.805837
v -0.054908 0.340331 -0.791460
v 0.251073 0.358220 -0.748564
v 0.547874 0.402195 -0.646014
v -0.470577 0.709504 -0.971618
v -0.178916 0.715939 -0.939690
v 0.175955 0.727634 -0.860571
v 0.532685 0.750852 -0.739223
v -0.454403 1.218425 -1.264720
v -0.147876 1.276343 -1.295315
v 0.152439 1.217925 -1.099351
v 0.565173 1.166658 -0.857744
v -0.387126 1.586538 -1.358913
v -0.070334 1.677237 -1.386651
v 0.211678 1.627092 -1.192946
v 0.533661 1.553511 -0.906772
v -0.939458 0.234606 0.591854
v -0.975461 0.276358 0.226213
v -0.922375 0.312230 -0.137227
v -0.798114 0.306928 -0.459703
v -1.059434 0.493666 0.636991
v -1.166812 0.602743 0.183274
v -1.146427 0.675040 -0.253398
v -0.981637 0.694109 -0.617743
v -1.131606 0.762519 0.543515
v -1.342069 0.950474 0.024636
v -1.290907 1.059728 -0.470802
v -1.049903 1.116702 -0.847863
v -1.236143 1.033397 0.376813
v -1.410480 1.237863 -0.166675
v -1.265156 1.360568 -0.623159
v -0.968889 1.489018 -1.010134
vt 0.575000 0.200000
vt 0.625000 0.200000
vt 0.625000 0.250000
vt 0.575000 0.250000
vt 0.575000 0.450000
vt 0.625000 0.450000
vt 0.625000 0.500000
vt 0.575000 0.500000
vt 0.575000 0.700000
vt 0.625000 0.700000
vt 0.625000 0.750000
vt 0.575000 0.750000
vt 0.575000 0.950000
vt 0.625000 0.950000
vt 0.625000 1.000000
vt 0.575000 1.000000
vt 0.325000 0.700000
vt 0.375000 0.700000
vt 0.375000 0.750000
vt 0.325000 0.750000
vt 0.825000 0.700000
vt 0.875000 0.700000
vt 0.875000 0.750000
vt 0.825000 0.750000
vt 0.675000 0.700000
vt 0.675000 0.750000
vt 0.725000 0.700000
vt 0.725000 0.750000
vt 0.775000 0.700000
vt 0.775000 0.750000
vt 0.675000 0.500000
vt 0.675000 0.550000
vt 0.625000 0.550000
vt 0.675000 0.600000
vt 0.625000 0.600000
vt 0.675000 0.650000
vt 0.625000 0.650000
vt 0.725000 0.500000
vt 0.725000 0.550000
vt 0.725000 0.600000
vt 0.725000 0.650000
vt 0.775000 0.500000
vt 0.775000 0.550000
vt 0.775000 0.600000
vt 0.775000 0.650000
vt 0.825000 0.500000
vt 0.825000 0.550000
vt 0.825000 0.600000
vt 0.825000 0.650000
vt 0.875000 0.500000
vt 0.875000 0.550000
vt 0.875000 0.600000
vt 0.875000 0.650000
vt 0.125000 0.700000
vt 0.175000 0.700000
vt 0.175000 0.750000
vt 0.125000 0.750000
vt 0.225000 0.700000
vt 0.225000 0.750000
vt 0.275000 0.700000
vt 0.275000 0.750000
vt 0.125000 0.500000
vt 0.175000 0.500000
vt 0.175000 0.550000
vt 0.125000 0.550000
vt 0.175000 0.600000
vt 0.125000 0.600000
vt 0.175000 0.650000
vt 0.125000 0.650000
vt 0.225000 0.500000
vt 0.225000 0.550000
vt 0.225000 0.600000
vt 0.225000 0.650000
vt 0.275000 0.500000
vt 0.275000 0.550000
vt 0.275000 0.600000
vt 0.275000 0.650000
vt 0.325000 0.500000
vt 0.325000 0.550000
vt 0.325000 0.600000
vt 0.325000 0.650000
vt 0.375000 0.500000
vt 0.375000 0.550000
vt 0.375000 0.600000
vt 0.375000 0.650000
vt 0.375000 0.950000
vt 0.425000 0.950000
vt 0.425000 1.000000
vt 0.375000 1.000000
vt 0.475000 0.950000
vt 0.475000 1.000000
vt 0.525000 0.950000
vt 0.525000 1.000000
vt 0.425000 0.750000
vt 0.425000 0.800000
vt 0.375000 0.800000
vt 0.425000 0.850000
vt 0.375000 0.850000
vt 0.425000 0.900000
vt 0.375000 0.900000
vt 0.475000 0.750000
vt 0.475000 0.800000
vt 0.475000 0.850000
vt 0.475000 0.900000
vt 0.525000 0.750000
vt 0.525000 0.800000
vt 0.525000 0.850000
vt 0.525000 0.900000
vt 0.575000 0.800000
vt 0.575000 0.850000
vt 0.575000 0.900000
vt 0.625000 0.800000
vt 0.625000 0.850000
vt 0.625000 0.900000
vt 0.425000 0.700000
vt 0.475000 0.700000
vt 0.525000 0.700000
vt 0.425000 0.500000
vt 0.425000 0.550000
vt 0.425000 0.600000
vt 0.425000 0.650000
vt 0.475000 0.500000
vt 0.475000 0.550000
vt 0.475000 0.600000
vt 0.475000 0.650000
vt 0.525000 0.500000
vt 0.525000 0.550000
vt 0.525000 0.600000
vt 0.525000 0.650000
vt 0.575000 0.550000
vt 0.575000 0.600000
vt 0.575000 0.650000
vt 0.375000 0.450000
vt 0.425000 0.450000
vt 0.475000 0.450000
vt 0.525000 0.450000
vt 0.375000 0.250000
vt 0.425000 0.250000
vt 0.425000 0.300000
vt 0.375000 0.300000
vt 0.425000 0.350000
vt 0.375000 0.350000
vt 0.425000 0.400000
vt 0.375000 0.400000
vt 0.475000 0.250000
vt 0.475000 0.300000
vt 0.475000 0.350000
vt 0.475000 0.400000
vt 0.525000 0.250000
vt 0.525000 0.300000
vt 0.525000 0.350000
vt 0.525000 0.400000
vt 0.575000 0.300000
vt 0.575000 0.350000
vt 0.575000 0.400000
vt 0.625000 0.300000
vt 0.625000 0.350000
vt 0.625000 0.400000
vt 0.375000 0.200000
vt 0.425000 0.200000
vt 0.475000 0.200000
vt 0.525000 0.200000
vt 0.375000 0.000000
vt 0.425000 0.000000
vt 0.425000 0.050000
vt 0.375000 0.050000
vt 0.425000 0.100000
vt 0.375000 0.100000
vt 0.425000 0.150000
vt 0.375000 0.150000
vt 0.475000 0.000000
vt 0.475000 0.050000
vt 0.475000 0.100000
vt 0.475000 0.150000
vt 0.525000 0.000000
vt 0.525000 0.050000
vt 0.525000 0.100000
vt 0.525000 0.150000
vt 0.575000 0.000000
vt 0.575000 0.050000
vt 0.575000 0.100000
vt 0.575000 0.150000
vt 0.625000 0.000000
vt 0.625000 0.050000
vt 0.625000 0.100000
vt 0.625000 0.150000
vn -0.6311 0.1089 -0.7680
vn 0.5891 0.4401 -0.6777
vn 0.2859 0.7123 0.6410
vn -0.2719 0.5897 0.7605
vn 0.1803 -0.9836 -0.0048
vn -0.0549 0.8889 0.4547
vn -0.0668 0.7844 0.6166
vn -0.2044 0.7742 0.5991
vn -0.1908 0.8256 0.5310
vn 0.1179 0.9427 0.3122
vn 0.3140 0.9484 -0.0435
vn 0.1621 0.9529 0.2562
vn -0.0261 0.8376 0.5457
vn -0.0439 0.8269 0.5607
vn 0.3583 0.9334 0.0192
vn 0.0164 0.9655 0.2599
vn -0.2502 0.8383 0.4845
vn -0.2408 0.8439 0.4794
vn 0.2458 0.9677 -0.0568
vn -0.0523 0.9609 0.2719
vn -0.2254 0.8289 0.5119
vn -0.0911 0.9139 0.3957
vn -0.2657 0.8345 -0.4827
vn -0.2671 0.9617 0.0616
vn -0.1128 0.8530 0.5096
vn 0.3409 0.8617 0.3759
vn -0.4784 0.6062 -0.6353
vn -0.5723 0.7716 -0.2777
vn -0.5815 0.8130 0.0286
vn -0.2712 0.8653 0.4216
vn -0.3019 -0.9173 0.2596
vn -0.2976 -0.9320 0.2072
vn -0.0228 -0.9812 0.1914
vn 0.0078 -0.9886 0.1502
vn -0.2788 -0.8667 -0.4136
vn -0.3902 -0.9181 -0.0688
vn -0.4180 -0.9082 -0.0212
vn -0.3458 -0.9374 -0.0412
vn 0.0272 -0.8956 -0.4440
vn -0.0295 -0.9978 -0.0592
vn -0.0696 -0.9976 0.0046
vn -0.1523 -0.9876 -0.0382
vn 0.0135 -0.8606 -0.5091
vn -0.0248 -0.9983 -0.0527
vn 0.0028 -1.0000 0.0054
vn 0.0171 -0.9968 -0.0786
vn 0.2864 -0.8736 -0.3934
vn 0.3203 -0.9464 0.0409
vn 0.2677 -0.9635 0.0045
vn 0.1736 -0.9798 -0.0989
vn 0.6293 -0.7640 -0.1424
vn 0.5929 -0.7980 0.1079
vn 0.5716 -0.8202 -0.0253
vn 0.4806 -0.8649 -0.1446
vn -0.3631 -0.7369 0.5702
vn -0.2744 -0.5983 0.7528
vn -0.2219 0.3994 0.8895
vn -0.3811 0.3956 0.8357
vn 0.0081 -0.9673 0.2535
vn -0.2934 -0.8873 0.3558
vn -0.2033 -0.7430 0.6377
vn -0.3995 -0.6681 0.6277
vn 0.1296 -0.2227 0.9662
vn -0.4738 -0.2689 0.8385
vn -0.4213 -0.2434 0.8736
vn -0.2919 -0.3127 0.9039
vn 0.1785 0.4808 0.8585
vn -0.3056 0.2677 0.9137
vn -0.4141 0.1020 0.9045
vn -0.2663 0.1222 0.9561
vn 0.1204 0.6766 0.7264
vn -0.1516 0.6602 0.7356
vn -0.2539 0.5619 0.7873
vn -0.2518 0.4428 0.8605
vn -0.0492 0.7044 0.7081
vn -0.1618 0.7190 0.6759
vn -0.1635 0.7336 0.6597
vn -0.1022 0.7418 0.6628
vn 0.7961 -0.6043 -0.0331
vn 0.9692 0.1011 0.2245
vn 0.8139 0.4094 0.4123
vn 0.5790 0.5519 0.6002
vn 0.8512 -0.4681 -0.2372
vn 0.7807 -0.6203 0.0758
vn 0.7668 -0.6409 0.0357
vn 0.8213 -0.5644 -0.0833
vn 0.8425 -0.2396 -0.4824
vn 0.9203 -0.3870 -0.0567
vn 0.8988 -0.4089 0.1582
vn 0.9624 -0.2031 0.1802
vn 0.8266 -0.2087 -0.5226
vn 0.9959 -0.0774 -0.0463
vn 0.9274 0.0104 0.3740
vn 0.8933 0.1677 0.4170
vn 0.9002 0.0623 -0.4310
vn 0.9816 0.1477 0.1212
vn 0.8225 0.2031 0.5313
vn 0.7359 0.3820 0.5590
vn 0.7833 0.5898 -0.1962
vn 0.6969 0.6673 0.2627
vn 0.4725 0.6028 0.6430
vn 0.3724 0.6648 0.6476
vn 0.5688 -0.3005 -0.7656
vn 0.5306 -0.1996 -0.8238
vn 0.5342 -0.2587 -0.8048
vn 0.5800 -0.0491 -0.8131
vn -0.2703 -0.5343 -0.8009
vn 0.0791 -0.5677 -0.8195
vn 0.1038 -0.5229 -0.8460
vn 0.2966 -0.3895 -0.8719
vn -0.2103 -0.4912 -0.8453
vn 0.0896 -0.3535 -0.9311
vn 0.1864 -0.2792 -0.9420
vn 0.3363 -0.2194 -0.9158
vn -0.2216 -0.4398 -0.8703
vn 0.0578 -0.5197 -0.8524
vn 0.3132 -0.4693 -0.8256
vn 0.3909 -0.3410 -0.8550
vn -0.3607 -0.1849 -0.9142
vn -0.0367 -0.2278 -0.9730
vn 0.4996 -0.2721 -0.8224
vn 0.5567 -0.1653 -0.8141
vn -0.3559 0.0203 -0.9343
vn -0.0838 0.1075 -0.9907
vn 0.5889 0.1086 -0.8009
vn 0.7393 0.2364 -0.6305
vn -0.6996 -0.5124 -0.4980
vn -0.6860 -0.5406 -0.4870
vn -0.7027 -0.3456 -0.6219
vn -0.6406 -0.1401 -0.7550
vn -0.5661 -0.7547 0.3316
vn -0.6300 -0.7749 -0.0512
vn -0.6506 -0.7494 -0.1231
vn -0.7509 -0.6323 -0.1906
vn -0.7690 -0.5702 0.2888
vn -0.8808 -0.4686 0.0679
vn -0.8314 -0.5354 -0.1487
vn -0.7709 -0.5415 -0.3353
vn -0.8958 0.1322 0.4244
vn -0.9333 -0.2855 0.2178
vn -0.8730 -0.4617 -0.1569
vn -0.7598 -0.4567 -0.4627
vn -0.7832 0.1458 0.6045
vn -0.9467 -0.0962 0.3074
vn -0.9453 -0.2129 -0.2470
vn -0.7908 -0.1517 -0.5929
vn -0.7206 0.2651 0.6407
vn -0.9329 0.1943 0.3032
vn -0.9272 0.1812 -0.3277
vn -0.7875 0.2220 -0.5749
g Cube_Cube.003_Material.001
usemtl Material.001
s off
f 152/1/1 20/2/1 4/3/1 21/4/1
f 136/5/2 32/6/2 8/7/2 33/8/2
f 120/9/3 44/10/3 6/11/3 45/12/3
f 104/13/4 56/14/4 2/15/4 16/16/4
f 88/17/5 37/18/5 5/19/5 52/20/5
f 72/21/6 17/22/6 2/23/6 56/24/6
f 44/10/7 60/25/7 53/26/7 6/11/7
f 60/25/8 64/27/8 54/28/8 53/26/8
f 64/27/9 68/29/9 55/30/9 54/28/9
f 68/29/10 72/21/10 56/24/10 55/30/10
f 8/7/11 32/31/11 57/32/11 41/33/11
f 41/33/12 57/32/12 58/34/12 42/35/12
f 42/35/13 58/34/13 59/36/13 43/37/13
f 43/37/14 59/36/14 60/25/14 44/10/14
f 32/31/15 31/38/15 61/39/15 57/32/15
f 57/32/16 61/39/16 62/40/16 58/34/16
f 58/34/17 62/40/17 63/41/17 59/36/17
f 59/36/18 63/41/18 64/27/18 60/25/18
f 31/38/19 30/42/19 65/43/19 61/39/19
f 61/39/20 65/43/20 66/44/20 62/40/20
f 62/40/21 66/44/21 67/45/21 63/41/21
f 63/41/22 67/45/22 68/29/22 64/27/22
f 30/42/23 29/46/23 69/47/23 65/43/23
f 65/43/24 69/47/24 70/48/24 66/44/24
f 66/44/25 70/48/25 71/49/25 67/45/25
f 67/45/26 71/49/26 72/21/26 68/29/26
f 29/46/27 4/50/27 20/51/27 69/47/27
f 69/47/28 20/51/28 19/52/28 70/48/28
f 70/48/29 19/52/29 18/53/29 71/49/29
f 71/49/30 18/53/30 17/22/30 72/21/30
f 12/54/31 76/55/31 49/56/31 1/57/31
f 76/55/32 80/58/32 50/59/32 49/56/32
f 80/58/33 84/60/33 51/61/33 50/59/33
f 84/60/34 88/17/34 52/20/34 51/61/34
f 3/62/35 28/63/35 73/64/35 9/65/35
f 9/65/36 73/64/36 74/66/36 10/67/36
f 10/67/37 74/66/37 75/68/37 11/69/37
f 11/69/38 75/68/38 76/55/38 12/54/38
f 28/63/39 27/70/39 77/71/39 73/64/39
f 73/64/40 77/71/40 78/72/40 74/66/40
f 74/66/41 78/72/41 79/73/41 75/68/41
f 75/68/42 79/73/42 80/58/42 76/55/42
f 27/70/43 26/74/43 81/75/43 77/71/43
f 77/71/44 81/75/44 82/76/44 78/72/44
f 78/72/45 82/76/45 83/77/45 79/73/45
f 79/73/46 83/77/46 84/60/46 80/58/46
f 26/74/47 25/78/47 85/79/47 81/75/47
f 81/75/48 85/79/48 86/80/48 82/76/48
f 82/76/49 86/80/49 87/81/49 83/77/49
f 83/77/50 87/81/50 88/17/50 84/60/50
f 25/78/51 7/82/51 40/83/51 85/79/51
f 85/79/52 40/83/52 39/84/52 86/80/52
f 86/80/53 39/84/53 38/85/53 87/81/53
f 87/81/54 38/85/54 37/18/54 88/17/54
f 49/86/55 92/87/55 13/88/55 1/89/55
f 92/87/56 96/90/56 14/91/56 13/88/56
f 96/90/57 100/92/57 15/93/57 14/91/57
f 100/92/58 104/13/58 16/16/58 15/93/58
f 5/19/59 48/94/59 89/95/59 52/96/59
f 52/96/60 89/95/60 90/97/60 51/98/60
f 51/98/61 90/97/61 91/99/61 50/100/61
f 50/100/62 91/99/62 92/87/62 49/86/62
f 48/94/63 47/101/63 93/102/63 89/95/63
f 89/95/64 93/102/64 94/103/64 90/97/64
f 90/97/65 94/103/65 95/104/65 91/99/65
f 91/99/66 95/104/66 96/90/66 92/87/66
f 47/101/67 46/105/67 97/106/67 93/102/67
f 93/102/68 97/106/68 98/107/68 94/103/68
f 94/103/69 98/107/69 99/108/69 95/104/69
f 95/104/70 99/108/70 100/92/70 96/90/70
f 46/105/71 45/12/71 101/109/71 97/106/71
f 97/106/72 101/109/72 102/110/72 98/107/72
f 98/107/73 102/110/73 103/111/73 99/108/73
f 99/108/74 103/111/74 104/13/74 100/92/74
f 45/12/75 6/11/75 53/112/75 101/109/75
f 101/109/76 53/112/76 54/113/76 102/110/76
f 102/110/77 54/113/77 55/114/77 103/111/77
f 103/111/78 55/114/78 56/14/78 104/13/78
f 37/18/79 108/115/79 48/94/79 5/19/79
f 108/115/80 112/116/80 47/101/80 48/94/80
f 112/116/81 116/117/81 46/105/81 47/101/81
f 116/117/82 120/9/82 45/12/82 46/105/82
f 7/82/83 36/118/83 105/119/83 40/83/83
f 40/83/84 105/119/84 106/120/84 39/84/84
f 39/84/85 106/120/85 107/121/85 38/85/85
f 38/85/86 107/121/86 108/115/86 37/18/86
f 36/118/87 35/122/87 109/123/87 105/119/87
f 105/119/88 109/123/88 110/124/88 106/120/88
f 106/120/89 110/124/89 111/125/89 107/121/89
f 107/121/90 111/125/90 112/116/90 108/115/90
f 35/122/91 34/126/91 113/127/91 109/123/91
f 109/123/92 113/127/92 114/128/92 110/124/92
f 110/124/93 114/128/93 115/129/93 111/125/93
f 111/125/94 115/129/94 116/117/94 112/116/94
f 34/126/95 33/8/95 117/130/95 113/127/95
f 113/127/96 117/130/96 118/131/96 114/128/96
f 114/128/97 118/131/97 119/132/97 115/129/97
f 115/129/98 119/132/98 120/9/98 116/117/98
f 33/8/99 8/7/99 41/33/99 117/130/99
f 117/130/100 41/33/100 42/35/100 118/131/100
f 118/131/101 42/35/101 43/37/101 119/132/101
f 119/132/102 43/37/102 44/10/102 120/9/102
f 25/133/103 124/134/103 36/118/103 7/82/103
f 124/134/104 128/135/104 35/122/104 36/118/104
f 128/135/105 132/136/105 34/126/105 35/122/105
f 132/136/106 136/5/106 33/8/106 34/126/106
f 3/137/107 24/138/107 121/139/107 28/140/107
f 28/140/108 121/139/108 122/141/108 27/142/108
f 27/142/109 122/141/109 123/143/109 26/144/109
f 26/144/110 123/143/110 124/134/110 25/133/110
f 24/138/111 23/145/111 125/146/111 121/139/111
f 121/139/112 125/146/112 126/147/112 122/141/112
f 122/141/113 126/147/113 127/148/113 123/143/113
f 123/143/114 127/148/114 128/135/114 124/134/114
f 23/145/115 22/149/115 129/150/115 125/146/115
f 125/146/116 129/150/116 130/151/116 126/147/116
f 126/147/117 130/151/117 131/152/117 127/148/117
f 127/148/118 131/152/118 132/136/118 128/135/118
f 22/149/119 21/4/119 133/153/119 129/150/119
f 129/150/120 133/153/120 134/154/120 130/151/120
f 130/151/121 134/154/121 135/155/121 131/152/121
f 131/152/122 135/155/122 136/5/122 132/136/122
f 21/4/123 4/3/123 29/156/123 133/153/123
f 133/153/124 29/156/124 30/157/124 134/154/124
f 134/154/125 30/157/125 31/158/125 135/155/125
f 135/155/126 31/158/126 32/6/126 136/5/126
f 9/159/127 140/160/127 24/138/127 3/137/127
f 140/160/128 144/161/128 23/145/128 24/138/128
f 144/161/129 148/162/129 22/149/129 23/145/129
f 148/162/130 152/1/130 21/4/130 22/149/130
f 1/163/131 13/164/131 137/165/131 12/166/131
f 12/166/132 137/165/132 138/167/132 11/168/132
f 11/168/133 138/167/133 139/169/133 10/170/133
f 10/170/134 139/169/134 140/160/134 9/159/134
f 13/164/135 14/171/135 141/172/135 137/165/135
f 137/165/136 141/172/136 142/173/136 138/167/136
f 138/167/137 142/173/137 143/174/137 139/169/137
f 139/169/138 143/174/138 144/161/138 140/160/138
f 14/171/139 15/175/139 145/176/139 141/172/139
f 141/172/140 145/176/140 146/177/140 142/173/140
f 142/173/141 146/177/141 147/178/141 143/174/141
f 143/174/142 147/178/142 148/162/142 144/161/142
f 15/175/143 16/179/143 149/180/143 145/176/143
f 145/176/144 149/180/144 150/181/144 146/177/144
f 146/177/145 150/181/145 151/182/145 147/178/145
f 147/178/146 151/182/146 152/1/146 148/162/146
f 16/179/147 2/183/147 17/184/147 149/180/147
f 149/180/148 17/184/148 18/185/148 150/181/148
f 150/181/149 18/185/149 19/186/149 151/182/149
f 151/182/150 19/186/150 20/2/150 152/1/150
